<svg width="48" height="48" version="1.1" viewBox="0 0 12.7 12.7" xmlns="http://www.w3.org/2000/svg">
<!--
SPDX-FileCopyrightText: 2025 Jenny Aunola <jenny.aunola@hotmail.com>
SPDX-License-Identifier: CC-BY-SA-4.0
-->
    <defs>
        <linearGradient id="linearGradient5" x1="104.51934" x2="104.21029" y1="65.351006" y2="129.23834" gradientTransform="matrix(.0777504 0 0 .0777504 -1.7694089 -4.6307257)" gradientUnits="userSpaceOnUse">
            <stop stop-color="#66d65c" offset=".15017065"/>
            <stop stop-color="#407539" offset="1"/>
        </linearGradient>
        <linearGradient id="linearGradient8" x1="54.492798" x2="54.992016" y1="138.26097" y2="153.50108" gradientUnits="userSpaceOnUse">
            <stop stop-color="#65d65b" offset="0"/>
            <stop stop-color="#407439" offset="1"/>
        </linearGradient>
        <linearGradient id="linearGradient8-6" x1="52.096626" x2="54.992012" y1="137.6891" y2="153.50107" gradientUnits="userSpaceOnUse">
            <stop stop-color="#65d65b" offset="0"/>
            <stop stop-color="#407439" offset="1"/>
        </linearGradient>
        <linearGradient id="linearGradient8-3" x1="50.983349" x2="54.992012" y1="138.54053" y2="153.50107" gradientUnits="userSpaceOnUse">
            <stop stop-color="#66d65c" offset="0"/>
            <stop stop-color="#407439" offset="1"/>
        </linearGradient>
        <linearGradient id="linearGradient8-3-8" x1="60.467934" x2="45.507427" y1="148.02513" y2="144.01646" gradientUnits="userSpaceOnUse">
            <stop stop-color="#66d65c" offset="0"/>
            <stop stop-color="#407439" offset="1"/>
        </linearGradient>
        <linearGradient id="linearGradient8-9" x1="59.905048" x2="45.507412" y1="150.80598" y2="144.01646" gradientUnits="userSpaceOnUse">
            <stop stop-color="#66d65c" offset="0"/>
            <stop stop-color="#407439" offset="1"/>
        </linearGradient>
        <linearGradient id="linearGradient9" x1="50.983349" x2="54.992012" y1="138.54053" y2="153.50107" gradientUnits="userSpaceOnUse">
            <stop stop-color="#67d65d" offset="0"/>
            <stop stop-color="#407439" offset="1"/>
        </linearGradient>
        <linearGradient id="linearGradient10" x1="51.879456" x2="55.30405" y1="137.88667" y2="153.13654" gradientUnits="userSpaceOnUse">
            <stop stop-color="#67d65d" offset="0"/>
            <stop stop-color="#407439" offset=".85836178"/>
        </linearGradient>
        <linearGradient id="linearGradient2" x1="39.449654" x2="43.15593" y1="20.733675" y2="34.565681" gradientTransform="matrix(.0777504 0 0 .0777504 .6928487 .58656864)" gradientUnits="userSpaceOnUse">
            <stop stop-color="#4d4d4d" offset="0"/>
            <stop offset="1"/>
        </linearGradient>
        <linearGradient id="linearGradient6" x1="102.29868" x2="105.62354" y1="21.487993" y2="33.896564" gradientTransform="matrix(.0777504 0 0 .0777504 .6928487 .58656864)" gradientUnits="userSpaceOnUse">
            <stop stop-color="#4d4d4d" offset="0"/>
            <stop offset="1"/>
        </linearGradient>
        <linearGradient id="linearGradient72" x1="75.607216" x2="75.482094" y1="34.245937" y2="151.15749" gradientTransform="matrix(.0777504 0 0 .0777504 .6928487 .58656864)" gradientUnits="userSpaceOnUse">
            <stop stop-color="#eceeee" offset="0"/>
            <stop stop-color="#c4d2d4" offset="1"/>
        </linearGradient>
        <linearGradient id="linearGradient119" x1="5.6688352" x2="9.9452" y1="6.4109082" y2="10.687273" gradientTransform="translate(0 -.10627835)" gradientUnits="userSpaceOnUse">
            <stop stop-color="#e2e8e9" offset="0"/>
            <stop stop-color="#829ca1" stop-opacity="0" offset="1"/>
        </linearGradient>
    </defs>
    <rect x="1.8462554" y="11.239755" width="8.9833879" height=".26458332" fill="#8d9aa5"/>
    <rect x="1.8455447" y="4.5574665" width="8.9852419" height="6.7343178" fill="url(#linearGradient72)"/>
    <path d="m6.511808 1.195698c-0.00944 1.866e-4 -0.018336 0.00115-0.026839 0.00333-0.1089189-0.00412-0.2163536-0.00198-0.3370183 0.00716-0.017795-0.00258-0.037384-8.804e-4 -0.059104 0.00105-0.1214655 0.010763-0.3090536 0.02921-0.5104702 0.075335-0.2014158 0.0461162-0.4166538 0.1199173-0.5657948 0.1783434-0.1491416 0.0584262-0.2321562 0.1014613-0.2890453 0.1229869-0.0568863 0.0215254-0.0876475 0.0215159-0.1368487 0.0015288-0.0491985-0.019987-0.1168601-0.0599267-0.1537611-0.0799137-0.0369013-0.019988-0.0430527-0.0199852-0.0861035-0.0292105-0.0430498-0.00923-0.1230064-0.027694-0.2121833-0.0261556-0.0891773 0.0015383-0.1875627 0.0230694-0.278277 0.096871-0.0907156 0.0737976-0.1737398 0.1998758-0.2244786 0.3336407-0.0507387 0.1337651-0.0691874 0.2751887-0.0922502 0.4181793-0.0230627 0.1429904-0.0507367 0.2875102-0.0922501 0.4381885-0.0415125 0.1506772-0.0968558 0.3075106-0.1506694 0.4766379-0.0538132 0.1691276-0.1061161 0.3505761-0.1630047 0.5550677-0.0568886 0.2044913-0.1183652 0.4320257-0.1414287 0.6411301-0.00554 0.050215-0.00885 0.099383-0.00944 0.1476163h0.6263043c0.047923 0.073602 0.1052531 0.1432304 0.1749379 0.1998484 0.1476035 0.1199275 0.350577 0.1814551 0.6181083 0.2091304 0.2675308 0.027669 0.5996326 0.021499 0.8517866-0.02463 0.2521542-0.046129 0.4243519-0.1322241 0.6334566-0.1844999 0.2091045-0.052279 0.4550754-0.070718 0.6949302-0.064568 0.2398546 0.00612 0.4735865 0.036899 0.6919157 0.1045455 0.2183293 0.067649 0.4212755 0.1721918 0.6795819 0.2029421 0.2583053 0.030749 0.571922-0.012299 0.7933272-0.098398 0.2214041-0.086098 0.3505656-0.215221 0.424367-0.3382233 0.00124-0.00197 0.00239-0.00416 0.00363-0.00612h0.4852747c-2.341e-4 -0.0511897-0.0036309-0.1034374-0.0095358-0.1568571-0.0230647-0.2091053-0.0845424-0.4366384-0.1414296-0.64113-0.0569155-0.2045008-0.1092192-0.3859097-0.1630319-0.5550376-0.0537869-0.1691473-0.1091304-0.3259807-0.1506434-0.4766587-0.0415121-0.1506779-0.0691875-0.2951976-0.09225-0.4381882-0.0230624-0.1429906-0.041511-0.2844542-0.092251-0.4182195-0.0507377-0.1337648-0.133763-0.2598423-0.2244769-0.3336431-0.0907151-0.0738015-0.1891003-0.0953332-0.2782784-0.0968713-0.089178-0.00154-0.1691324 0.016931-0.2121824 0.026156-0.043049 0.00923-0.049199 0.00922-0.086099 0.02921-0.036899 0.019988-0.1045632 0.059968-0.153763 0.079956-0.049199 0.019988-0.079917 0.019999-0.1368088-0.00153-0.0568827-0.0215203-0.139943-0.0645953-0.2890848-0.1230218-0.1491408-0.0584257-0.3643785-0.1322274-0.565795-0.1783529-0.2014157-0.0461259-0.3890049-0.0645724-0.5104692-0.0753352-0.015183-0.00135-0.029328-0.00255-0.042551-0.00229z" fill="url(#linearGradient5)"/>
    <path d="m9.9170319 5.4988763-5.0635617 4.9358117 0.8035488 0.857305h5.173844v-4.8782559z" fill="url(#linearGradient119)"/>
    <path transform="matrix(.09332297 0 0 .08368477 -3.0634221 -5.3715342)" d="m51.573253 153.69145c-1.661102 0.3164-3.480403 0.0791-4.70646-1.22607-1.226058-1.30517-1.858848-3.67813-1.542434-5.89295 0.316414-2.21483 1.581989-4.27139 3.243112-5.65565 1.661123-1.38425 3.717682-2.09614 6.220074-2.64227s5.450395-0.92647 6.353018-0.29772c0.902623 0.62874-0.240269 2.26652-1.041986 3.88051-0.801717 1.614-1.262213 3.20411-1.848423 4.82975-0.586209 1.62563-1.298098 3.2867-2.405514 4.55231-1.107417 1.26561-2.610286 2.13569-4.271387 2.45209z" fill="url(#linearGradient8)"/>
    <path transform="matrix(.09106083 .02042311 -.01831386 .08165627 -.31741745 -5.2070078)" d="m51.573253 153.69145c-1.661102 0.3164-3.480403 0.0791-4.70646-1.22607-1.226058-1.30517-1.858848-3.67813-1.542434-5.89295 0.316414-2.21483 1.581989-4.27139 3.243112-5.65565 1.661123-1.38425 3.717682-2.09614 6.220074-2.64227s5.450395-0.92647 6.353018-0.29772c0.902623 0.62874-0.240269 2.26652-1.041986 3.88051-0.801717 1.614-1.262213 3.20411-1.848423 4.82975-0.586209 1.62563-1.298098 3.2867-2.405514 4.55231-1.107417 1.26561-2.610286 2.13569-4.271387 2.45209z" fill="url(#linearGradient8-6)"/>
    <path transform="matrix(.09208759 .01513456 -.01357149 .08257697 -1.0281577 -4.1708752)" d="m51.573253 153.69145c-1.661102 0.3164-3.480403 0.0791-4.70646-1.22607-1.226058-1.30517-1.858848-3.67813-1.542434-5.89295 0.316414-2.21483 1.581989-4.27139 3.243112-5.65565 1.661123-1.38425 3.717682-2.09614 6.220074-2.64227s5.450395-0.92647 6.460098-0.21202 0.08098 2.52359-0.720745 4.1376c-0.801728 1.61401-1.476376 3.03272-2.169665 4.57266-0.693288 1.53993-1.405177 3.201-2.512593 4.46661-1.107417 1.26561-2.610286 2.13569-4.271387 2.45209z" fill="url(#linearGradient8-3)"/>
    <path transform="matrix(.03800292 -.08523471 -.07643185 -.03407805 11.012639 19.082974)" d="m51.573253 153.69145c-1.661102 0.3164-3.480403 0.0791-4.70646-1.22607-1.226058-1.30517-1.858848-3.67813-1.542434-5.89295 0.316414-2.21483 1.581989-4.27139 3.243112-5.65565 1.661123-1.38425 3.717682-2.09614 6.220074-2.64227s5.450395-0.92647 6.460098-0.21202 0.08098 2.52359-0.720745 4.1376c-0.801728 1.61401-1.476376 3.03272-2.169665 4.57266-0.693288 1.53993-1.405177 3.201-2.512593 4.46661-1.107417 1.26561-2.610286 2.13569-4.271387 2.45209z" fill="url(#linearGradient8-3-8)"/>
    <path transform="matrix(-.09332297 0 0 .08368477 15.763422 -5.3813401)" d="m51.573253 153.69145c-1.661102 0.3164-3.480403 0.0791-4.70646-1.22607-1.226058-1.30517-1.858848-3.67813-1.542434-5.89295 0.316414-2.21483 1.581989-4.27139 3.243112-5.65565 1.661123-1.38425 3.717682-2.09614 6.220074-2.64227s5.450395-0.92647 6.353018-0.29772c0.902623 0.62874-0.240269 2.26652-1.041986 3.88051-0.801717 1.614-1.262213 3.20411-1.848423 4.82975-0.586209 1.62563-1.298098 3.2867-2.405514 4.55231-1.107417 1.26561-2.610286 2.13569-4.271387 2.45209z" fill="url(#linearGradient9)"/>
    <path transform="matrix(-.09106083 .02042311 .01831386 .08165627 13.017417 -5.2168141)" d="m51.573253 153.69145c-1.661102 0.3164-3.480403 0.0791-4.70646-1.22607-1.226058-1.30517-1.858848-3.67813-1.542434-5.89295 0.316414-2.21483 1.581989-4.27139 3.243112-5.65565 1.661123-1.38425 3.717682-2.09614 6.220074-2.64227s5.450395-0.92647 6.353018-0.29772c0.902623 0.62874-0.240269 2.26652-1.041986 3.88051-0.801717 1.614-1.262213 3.20411-1.848423 4.82975-0.586209 1.62563-1.298098 3.2867-2.405514 4.55231-1.107417 1.26561-2.610286 2.13569-4.271387 2.45209z" fill="url(#linearGradient10)"/>
    <path transform="matrix(-.09208759 .01513456 .01357149 .08257697 13.728158 -4.1806814)" d="m51.573253 153.69145c-1.661102 0.3164-3.480403 0.0791-4.70646-1.22607-1.226058-1.30517-1.858848-3.67813-1.542434-5.89295 0.316414-2.21483 1.581989-4.27139 3.243112-5.65565 1.661123-1.38425 3.717682-2.09614 6.220074-2.64227s5.450395-0.92647 6.460098-0.21202 0.08098 2.52359-0.720745 4.1376c-0.801728 1.61401-1.476376 3.03272-2.169665 4.57266-0.693288 1.53993-1.405177 3.201-2.512593 4.46661-1.107417 1.26561-2.610286 2.13569-4.271387 2.45209z" fill="url(#linearGradient9)"/>
    <path transform="matrix(-.03800292 -.08523471 .07643185 -.03407805 1.6873596 19.073167)" d="m51.573253 153.69145c-1.661102 0.3164-3.480403 0.0791-4.70646-1.22607-1.226058-1.30517-1.858848-3.67813-1.542434-5.89295 0.316414-2.21483 1.581989-4.27139 3.243112-5.65565 1.661123-1.38425 3.717682-2.09614 6.220074-2.64227s5.450395-0.92647 6.460098-0.21202 0.08098 2.52359-0.720745 4.1376c-0.801728 1.61401-1.476376 3.03272-2.169665 4.57266-0.693288 1.53993-1.405177 3.201-2.512593 4.46661-1.107417 1.26561-2.610286 2.13569-4.271387 2.45209z" fill="url(#linearGradient8-9)"/>
    <ellipse cx="3.9041574" cy="2.7363417" rx=".49940208" ry=".69677794" fill="url(#linearGradient2)"/>
    <ellipse cx="8.7758656" cy="2.7396543" rx=".49940208" ry=".69677794" fill="url(#linearGradient6)"/>
    <ellipse cx="4.0461402" cy="2.3995717" rx=".18762147" ry=".2486922" fill="#fff"/>
    <ellipse cx="8.6315031" cy="2.4192376" rx=".18762147" ry=".2486922" fill="#fff"/>
    <ellipse transform="rotate(-23.144673)" cx="3.221859" cy="5.5400162" rx=".15655506" ry=".18917067" fill="#1a3d10"/>
    <ellipse transform="matrix(-.91951532 -.39305417 -.39305417 .91951532 0 0)" cx="-8.4262266" cy=".53121507" rx=".15655506" ry=".18917067" fill="#1a3d10"/>
    <path transform="matrix(.07775039 0 0 .07775039 .69284869 .62771157)" d="m36.915254 49.248303s0.279661 1.286441 0.657209 1.971617c0.377548 0.685177 0.992791 1.412281 1.677968 2.013557s1.440247 1.076692 2.251271 1.46822c0.811025 0.391528 1.677959 0.69915 2.824583 0.96483 1.146623 0.265679 2.572867 0.489404 3.971184 0.629235 1.398318 0.139831 2.76863 0.195762 4.16695 0.181778 1.39832-0.01398 2.824562-0.09788 4.152965-0.265681 1.328403-0.167799 2.558884-0.419488 3.803389-0.741102s2.502953-0.713131 4.069074-1.132627c1.56612-0.419496 3.439812-0.866945 5.173725-1.132624 1.733914-0.265679 3.327952-0.349576 5.131785-0.293642 1.803832 0.05593 3.817354 0.251693 5.467366 0.461441 1.650011 0.209747 2.936426 0.433472 4.083047 0.755086 1.14662 0.321615 2.153379 0.741098 3.07627 1.076694 0.92289 0.335596 1.761855 0.587285 2.684746 0.838983 0.922892 0.251698 1.929652 0.503388 2.866525 0.629235 0.936872 0.125848 1.803803 0.125848 2.936445 0.0839 1.132641-0.04195 2.530919-0.125847 4.041102-0.405512 1.510182-0.279665 3.132192-0.755081 4.390672-1.244492 1.25848-0.48941 2.15338-0.99279 2.83856-1.594069 0.68517-0.601279 1.16058-1.300415 1.49618-1.929658s0.53136-1.188554 0.61201-1.825434c0.0807-0.63688 0.0462-1.35127-0.19153-1.180966-0.23772 0.170304-0.67866 1.225277-1.3606 2.11637s-1.60478 1.618178-2.93319 2.219461c-1.32842 0.601282-3.06225 1.076687-4.76822 1.328387-1.705962 0.2517-3.383859 0.279666-5.047877 0.153816s-3.313952-0.405499-5.005935-0.824999-3.425811-0.9788-5.005927-1.412283-3.006331-0.741098-4.51653-0.950847c-1.5102-0.20975-3.104205-0.321611-4.852121-0.377544-1.747916-0.05593-3.649535-0.05593-5.341518 0.139832-1.691982 0.195767-3.174127 0.587276-4.74026 0.97881-1.566133 0.391533-3.216069 0.783044-4.684317 1.23051-1.468248 0.447467-2.754639 0.950837-4.516538 1.216521-1.761898 0.265683-3.999098 0.293649-6.054647 0.139833-2.05555-0.153817-3.929205-0.489396-5.621187-1.020763-1.691983-0.531367-3.202095-1.258458-4.242651-1.855645-1.040557-0.597186-1.61144-1.0644-2.112441-1.832183-0.501001-0.767784-0.932058-1.836042-1.15-1.982475s-0.222742 0.628994-0.227542 1.404436z" fill="#326d2c"/>
    <path d="m9.9300698 5.4965771-5.0895694 4.9413489-1.9477534-2.6467005h0.8901434c0.00965 0.00325 1.0552822 1.4639566 1.0552822 1.4639566l3.8980917-3.758605z" fill="#1aa9f4" stroke-width=".518724"/>
</svg>
